<svg xmlns="http://www.w3.org/2000/svg" aria-hidden="true" style="position:absolute;width:0;height:0;overflow:hidden"><defs><symbol id="icon-hand" viewBox="0 0 30 32"><path fill="#a900a9" d="M14.971 32a4.57 4.57 0 0 1-3.238-1.333l-7.771-7.81 1.143-1.181q.61-.609 1.429-.819c.819-.21 1.086-.133 1.619.019l2.514.724V9.143q0-.648.438-1.086c.438-.438.654-.438 1.086-.438q.648 0 1.086.438c.438.438.438.654.438 1.086v16.495l-3.695-1.029 3.886 3.886q.19.19.476.324c.286.134.387.133.59.133h6.362q1.258 0 2.152-.895c.894-.895.895-1.314.895-2.152V19.81q0-.648.438-1.086c.438-.438.654-.438 1.086-.438q.648 0 1.086.438c.438.438.438.654.438 1.086v6.095q0 2.514-1.79 4.305C23.849 32.001 23.01 32 21.334 32zm.267-10.667v-6.095q0-.648.438-1.086c.438-.438.654-.438 1.086-.438q.648 0 1.086.438c.438.438.438.654.438 1.086v6.095zm4.572 0v-4.571q0-.648.438-1.086c.438-.438.654-.438 1.086-.438q.648 0 1.086.438c.438.438.438.654.438 1.086v4.571zm10.666-12.19h-7.619V6.857h4.419q-2.514-2.21-5.6-3.39c-3.086-1.18-4.203-1.181-6.438-1.181q-3.352 0-6.438 1.181c-3.086 1.181-3.924 1.917-5.6 3.39h4.419v2.286H0V1.524h2.286V4.61q2.743-2.247 6.057-3.429C11.657-.001 12.851 0 15.238 0q3.581 0 6.895 1.181c3.314 1.181 4.229 1.93 6.057 3.429V1.524h2.286z" style="fill:var(--color1, #a900a9)"/></symbol><symbol id="icon-menu" viewBox="0 0 32 32"><path fill="none" stroke="#500050" stroke-linecap="round" stroke-linejoin="round" stroke-width="2.667" d="M5.333 8h21.333M5.333 16h21.333M5.333 24h21.333" style="stroke:var(--color2, #500050)"/></symbol><symbol id="icon-close" viewBox="0 0 32 32"><path fill="none" stroke="#500050" stroke-linecap="round" stroke-linejoin="round" stroke-width="2.667" d="M24 8 8 24M8 8l16 16" style="stroke:var(--color2, #500050)"/></symbol></defs></svg>